<mxfile host="Electron" modified="2023-11-17T05:20:42.297Z" agent="Mozilla/5.0 (Windows NT 10.0; Win64; x64) AppleWebKit/537.36 (KHTML, like Gecko) draw.io/22.0.3 Chrome/114.0.5735.289 Electron/25.8.4 Safari/537.36" etag="1C35i_hJ3PT7hNYvRTte" version="22.0.3" type="device">
  <diagram name="第 1 页" id="jt6VVJo7nu8GzwiU6wVw">
    <mxGraphModel dx="1295" dy="818" grid="0" gridSize="10" guides="1" tooltips="1" connect="1" arrows="1" fold="1" page="1" pageScale="1" pageWidth="827" pageHeight="1169" math="0" shadow="0">
      <root>
        <mxCell id="0" />
        <mxCell id="1" parent="0" />
        <mxCell id="-iyel2Dhyy-FO2goj3Bq-1" value="CarMapper" style="ellipse;whiteSpace=wrap;html=1;" vertex="1" parent="1">
          <mxGeometry x="69" y="88" width="120" height="80" as="geometry" />
        </mxCell>
        <mxCell id="-iyel2Dhyy-FO2goj3Bq-2" value="CarTimeMapper" style="ellipse;whiteSpace=wrap;html=1;" vertex="1" parent="1">
          <mxGeometry x="375" y="88" width="120" height="80" as="geometry" />
        </mxCell>
        <mxCell id="-iyel2Dhyy-FO2goj3Bq-3" value="SeatListMapper" style="ellipse;whiteSpace=wrap;html=1;" vertex="1" parent="1">
          <mxGeometry x="671" y="88" width="120" height="80" as="geometry" />
        </mxCell>
        <mxCell id="-iyel2Dhyy-FO2goj3Bq-5" value="CarService" style="rounded=0;whiteSpace=wrap;html=1;" vertex="1" parent="1">
          <mxGeometry x="49" y="312" width="120" height="60" as="geometry" />
        </mxCell>
        <mxCell id="-iyel2Dhyy-FO2goj3Bq-6" value="CarTimeService" style="rounded=0;whiteSpace=wrap;html=1;" vertex="1" parent="1">
          <mxGeometry x="225" y="312" width="120" height="60" as="geometry" />
        </mxCell>
        <mxCell id="-iyel2Dhyy-FO2goj3Bq-7" value="RedisCreate" style="rounded=0;whiteSpace=wrap;html=1;" vertex="1" parent="1">
          <mxGeometry x="700" y="312" width="120" height="60" as="geometry" />
        </mxCell>
        <mxCell id="-iyel2Dhyy-FO2goj3Bq-9" value="RedisService" style="rounded=0;whiteSpace=wrap;html=1;" vertex="1" parent="1">
          <mxGeometry x="562" y="312" width="120" height="60" as="geometry" />
        </mxCell>
        <mxCell id="-iyel2Dhyy-FO2goj3Bq-10" value="SeatListService" style="rounded=0;whiteSpace=wrap;html=1;" vertex="1" parent="1">
          <mxGeometry x="400" y="312" width="120" height="60" as="geometry" />
        </mxCell>
        <mxCell id="-iyel2Dhyy-FO2goj3Bq-14" value="" style="endArrow=classic;html=1;rounded=0;entryX=0.5;entryY=1;entryDx=0;entryDy=0;exitX=0.5;exitY=0;exitDx=0;exitDy=0;" edge="1" parent="1" source="-iyel2Dhyy-FO2goj3Bq-5" target="-iyel2Dhyy-FO2goj3Bq-1">
          <mxGeometry width="50" height="50" relative="1" as="geometry">
            <mxPoint x="364" y="250" as="sourcePoint" />
            <mxPoint x="414" y="200" as="targetPoint" />
          </mxGeometry>
        </mxCell>
        <mxCell id="-iyel2Dhyy-FO2goj3Bq-15" value="" style="curved=1;endArrow=classic;html=1;rounded=0;entryX=0.25;entryY=1;entryDx=0;entryDy=0;exitX=0.427;exitY=0.991;exitDx=0;exitDy=0;exitPerimeter=0;" edge="1" parent="1" source="-iyel2Dhyy-FO2goj3Bq-5">
          <mxGeometry width="50" height="50" relative="1" as="geometry">
            <mxPoint x="299" y="372" as="sourcePoint" />
            <mxPoint x="269" y="372" as="targetPoint" />
            <Array as="points">
              <mxPoint x="115" y="511" />
              <mxPoint x="222" y="505" />
              <mxPoint x="285" y="457" />
              <mxPoint x="299" y="399" />
            </Array>
          </mxGeometry>
        </mxCell>
        <mxCell id="-iyel2Dhyy-FO2goj3Bq-17" value="" style="curved=1;endArrow=classic;html=1;rounded=0;entryX=0.353;entryY=0.991;entryDx=0;entryDy=0;entryPerimeter=0;exitX=0.332;exitY=0.991;exitDx=0;exitDy=0;exitPerimeter=0;" edge="1" parent="1" source="-iyel2Dhyy-FO2goj3Bq-5" target="-iyel2Dhyy-FO2goj3Bq-10">
          <mxGeometry width="50" height="50" relative="1" as="geometry">
            <mxPoint x="364" y="440" as="sourcePoint" />
            <mxPoint x="414" y="390" as="targetPoint" />
            <Array as="points">
              <mxPoint x="160" y="724" />
              <mxPoint x="378" y="478" />
            </Array>
          </mxGeometry>
        </mxCell>
        <mxCell id="-iyel2Dhyy-FO2goj3Bq-18" value="" style="curved=1;endArrow=classic;html=1;rounded=0;entryX=0.372;entryY=0.979;entryDx=0;entryDy=0;entryPerimeter=0;exitX=0.103;exitY=0.991;exitDx=0;exitDy=0;exitPerimeter=0;" edge="1" parent="1" source="-iyel2Dhyy-FO2goj3Bq-5" target="-iyel2Dhyy-FO2goj3Bq-7">
          <mxGeometry width="50" height="50" relative="1" as="geometry">
            <mxPoint x="364" y="440" as="sourcePoint" />
            <mxPoint x="414" y="390" as="targetPoint" />
            <Array as="points">
              <mxPoint x="200" y="826" />
              <mxPoint x="461" y="543" />
              <mxPoint x="591" y="520" />
            </Array>
          </mxGeometry>
        </mxCell>
        <mxCell id="-iyel2Dhyy-FO2goj3Bq-19" value="" style="endArrow=classic;html=1;rounded=0;exitX=0.421;exitY=0.039;exitDx=0;exitDy=0;exitPerimeter=0;" edge="1" parent="1" source="-iyel2Dhyy-FO2goj3Bq-6" target="-iyel2Dhyy-FO2goj3Bq-2">
          <mxGeometry width="50" height="50" relative="1" as="geometry">
            <mxPoint x="364" y="307" as="sourcePoint" />
            <mxPoint x="414" y="257" as="targetPoint" />
          </mxGeometry>
        </mxCell>
        <mxCell id="-iyel2Dhyy-FO2goj3Bq-20" value="" style="endArrow=classic;html=1;rounded=0;entryX=0;entryY=0.5;entryDx=0;entryDy=0;exitX=1;exitY=0.25;exitDx=0;exitDy=0;" edge="1" parent="1" source="-iyel2Dhyy-FO2goj3Bq-6" target="-iyel2Dhyy-FO2goj3Bq-10">
          <mxGeometry width="50" height="50" relative="1" as="geometry">
            <mxPoint x="364" y="307" as="sourcePoint" />
            <mxPoint x="414" y="257" as="targetPoint" />
          </mxGeometry>
        </mxCell>
        <mxCell id="-iyel2Dhyy-FO2goj3Bq-21" value="" style="endArrow=classic;html=1;rounded=0;entryX=0.5;entryY=1;entryDx=0;entryDy=0;exitX=0.569;exitY=0.026;exitDx=0;exitDy=0;exitPerimeter=0;" edge="1" parent="1" source="-iyel2Dhyy-FO2goj3Bq-10" target="-iyel2Dhyy-FO2goj3Bq-3">
          <mxGeometry width="50" height="50" relative="1" as="geometry">
            <mxPoint x="364" y="402" as="sourcePoint" />
            <mxPoint x="414" y="352" as="targetPoint" />
          </mxGeometry>
        </mxCell>
        <mxCell id="-iyel2Dhyy-FO2goj3Bq-23" value="" style="curved=1;endArrow=classic;html=1;rounded=0;entryX=0.75;entryY=1;entryDx=0;entryDy=0;exitX=0.5;exitY=1;exitDx=0;exitDy=0;" edge="1" parent="1" source="-iyel2Dhyy-FO2goj3Bq-9" target="-iyel2Dhyy-FO2goj3Bq-5">
          <mxGeometry width="50" height="50" relative="1" as="geometry">
            <mxPoint x="327" y="500" as="sourcePoint" />
            <mxPoint x="377" y="450" as="targetPoint" />
            <Array as="points">
              <mxPoint x="395" y="474" />
              <mxPoint x="345" y="474" />
            </Array>
          </mxGeometry>
        </mxCell>
        <mxCell id="-iyel2Dhyy-FO2goj3Bq-24" value="" style="curved=1;endArrow=classic;html=1;rounded=0;entryX=0.668;entryY=1.017;entryDx=0;entryDy=0;entryPerimeter=0;exitX=0.184;exitY=0.991;exitDx=0;exitDy=0;exitPerimeter=0;" edge="1" parent="1" source="-iyel2Dhyy-FO2goj3Bq-9" target="-iyel2Dhyy-FO2goj3Bq-6">
          <mxGeometry width="50" height="50" relative="1" as="geometry">
            <mxPoint x="364" y="402" as="sourcePoint" />
            <mxPoint x="414" y="352" as="targetPoint" />
            <Array as="points">
              <mxPoint x="444" y="418" />
              <mxPoint x="386" y="415" />
              <mxPoint x="345" y="402" />
            </Array>
          </mxGeometry>
        </mxCell>
        <mxCell id="-iyel2Dhyy-FO2goj3Bq-25" value="" style="endArrow=classic;html=1;rounded=0;entryX=1;entryY=0.5;entryDx=0;entryDy=0;exitX=0;exitY=0.5;exitDx=0;exitDy=0;" edge="1" parent="1" source="-iyel2Dhyy-FO2goj3Bq-9" target="-iyel2Dhyy-FO2goj3Bq-10">
          <mxGeometry width="50" height="50" relative="1" as="geometry">
            <mxPoint x="364" y="402" as="sourcePoint" />
            <mxPoint x="414" y="352" as="targetPoint" />
          </mxGeometry>
        </mxCell>
        <mxCell id="-iyel2Dhyy-FO2goj3Bq-27" value="" style="curved=1;endArrow=classic;html=1;rounded=0;entryX=0.878;entryY=1.004;entryDx=0;entryDy=0;entryPerimeter=0;exitX=0.855;exitY=0.979;exitDx=0;exitDy=0;exitPerimeter=0;" edge="1" parent="1" source="-iyel2Dhyy-FO2goj3Bq-7" target="-iyel2Dhyy-FO2goj3Bq-6">
          <mxGeometry width="50" height="50" relative="1" as="geometry">
            <mxPoint x="467" y="522" as="sourcePoint" />
            <mxPoint x="517" y="472" as="targetPoint" />
            <Array as="points">
              <mxPoint x="517" y="522" />
              <mxPoint x="467" y="472" />
            </Array>
          </mxGeometry>
        </mxCell>
        <mxCell id="-iyel2Dhyy-FO2goj3Bq-30" value="" style="curved=1;endArrow=classic;html=1;rounded=0;entryX=0.6;entryY=1;entryDx=0;entryDy=0;entryPerimeter=0;exitX=0.607;exitY=1.004;exitDx=0;exitDy=0;exitPerimeter=0;" edge="1" parent="1" source="-iyel2Dhyy-FO2goj3Bq-7" target="-iyel2Dhyy-FO2goj3Bq-10">
          <mxGeometry width="50" height="50" relative="1" as="geometry">
            <mxPoint x="512" y="464" as="sourcePoint" />
            <mxPoint x="562" y="414" as="targetPoint" />
            <Array as="points">
              <mxPoint x="575" y="446" />
              <mxPoint x="512" y="414" />
            </Array>
          </mxGeometry>
        </mxCell>
        <mxCell id="-iyel2Dhyy-FO2goj3Bq-31" value="Controller" style="rounded=1;whiteSpace=wrap;html=1;" vertex="1" parent="1">
          <mxGeometry x="49" y="883" width="644" height="106" as="geometry" />
        </mxCell>
        <mxCell id="-iyel2Dhyy-FO2goj3Bq-36" value="" style="shape=flexArrow;endArrow=classic;html=1;rounded=0;endWidth=36;endSize=7.093333333333334;" edge="1" parent="1">
          <mxGeometry width="50" height="50" relative="1" as="geometry">
            <mxPoint x="80" y="866" as="sourcePoint" />
            <mxPoint x="93" y="561" as="targetPoint" />
          </mxGeometry>
        </mxCell>
        <mxCell id="-iyel2Dhyy-FO2goj3Bq-37" value="" style="shape=flexArrow;endArrow=classic;html=1;rounded=0;endWidth=36;endSize=7.093333333333334;" edge="1" parent="1">
          <mxGeometry width="50" height="50" relative="1" as="geometry">
            <mxPoint x="267" y="855" as="sourcePoint" />
            <mxPoint x="277" y="721" as="targetPoint" />
          </mxGeometry>
        </mxCell>
        <mxCell id="-iyel2Dhyy-FO2goj3Bq-38" value="" style="shape=flexArrow;endArrow=classic;html=1;rounded=0;endWidth=36;endSize=7.093333333333334;" edge="1" parent="1">
          <mxGeometry width="50" height="50" relative="1" as="geometry">
            <mxPoint x="454" y="858" as="sourcePoint" />
            <mxPoint x="472" y="568" as="targetPoint" />
          </mxGeometry>
        </mxCell>
        <mxCell id="-iyel2Dhyy-FO2goj3Bq-39" value="" style="shape=flexArrow;endArrow=classic;html=1;rounded=0;endWidth=36;endSize=7.093333333333334;" edge="1" parent="1">
          <mxGeometry width="50" height="50" relative="1" as="geometry">
            <mxPoint x="615" y="858" as="sourcePoint" />
            <mxPoint x="624" y="500" as="targetPoint" />
          </mxGeometry>
        </mxCell>
      </root>
    </mxGraphModel>
  </diagram>
</mxfile>
